<svg width="388" height="283" viewBox="0 0 388 283" fill="none" xmlns="http://www.w3.org/2000/svg">
<g clip-path="url(#clip0)">
<path d="M193.89 282.94C300.972 282.94 387.78 277.872 387.78 271.62C387.78 265.368 300.972 260.3 193.89 260.3C86.8075 260.3 0 265.368 0 271.62C0 277.872 86.8075 282.94 193.89 282.94Z" fill="#F5F5F5"/>
<path d="M258.46 153.75H173.13C171.512 153.75 170.2 155.062 170.2 156.68V160.04C170.2 161.658 171.512 162.97 173.13 162.97H258.46C260.078 162.97 261.39 161.658 261.39 160.04V156.68C261.39 155.062 260.078 153.75 258.46 153.75Z" fill="#263238"/>
<path d="M257.65 265.63H261.39L257.09 162.96H251.91L257.65 265.63Z" fill="#407BFF"/>
<path opacity="0.6" d="M257.65 265.63H261.39L257.09 162.96H251.91L257.65 265.63Z" fill="white"/>
<path d="M223.22 265.63H219.47L223.78 162.96H228.96L223.22 265.63Z" fill="#407BFF"/>
<path opacity="0.6" d="M223.22 265.63H219.47L223.78 162.96H228.96L223.22 265.63Z" fill="white"/>
<path d="M208.38 265.63H212.12L207.81 162.96H202.64L208.38 265.63Z" fill="#407BFF"/>
<path opacity="0.6" d="M208.38 265.63H212.12L207.81 162.96H202.64L208.38 265.63Z" fill="white"/>
<path d="M173.94 265.63H170.2L174.51 162.96H179.68L173.94 265.63Z" fill="#407BFF"/>
<path opacity="0.6" d="M173.94 265.63H170.2L174.51 162.96H179.68L173.94 265.63Z" fill="white"/>
<g opacity="0.3">
<path opacity="0.3" d="M257.09 162.96H251.91L252.15 167.32H257.27L257.09 162.96Z" fill="#407BFF"/>
<path opacity="0.3" d="M223.6 167.32H228.71L228.96 162.96H223.78L223.6 167.32Z" fill="#407BFF"/>
<path opacity="0.3" d="M202.64 162.96L202.88 167.32H207.99L207.81 162.96H202.64Z" fill="#407BFF"/>
<path opacity="0.3" d="M174.32 167.32H179.44L179.69 162.96H174.5L174.32 167.32Z" fill="#407BFF"/>
</g>
<path d="M205.97 250.54L197.5 255.03L184.17 237.02L192.64 232.53L205.97 250.54Z" fill="#FFB573"/>
<path d="M194.45 252.25L203.29 246.11C203.362 246.048 203.447 246.003 203.538 245.976C203.629 245.949 203.725 245.941 203.819 245.953C203.913 245.965 204.004 245.997 204.085 246.047C204.166 246.096 204.236 246.162 204.29 246.24L209.58 252.93C209.834 253.299 209.934 253.752 209.857 254.194C209.781 254.635 209.534 255.029 209.17 255.29C206.06 257.37 204.66 258.1 200.59 260.52C198.08 262 192.08 265.52 188.39 267.13C184.7 268.74 183.22 265.04 184.64 264.03C188.01 261.65 192.47 256.97 193.48 253.68C193.636 253.109 193.977 252.606 194.45 252.25V252.25Z" fill="#263238"/>
<path opacity="0.2" d="M192.65 232.53L184.17 237.03L190.6 245.7L198.88 240.94L192.65 232.53Z" fill="black"/>
<path d="M213.08 125.85C213.08 125.85 147.34 123.8 147.08 151.27C146.76 190.75 184.23 242.6 184.23 242.6L198.89 232.85C198.89 232.85 173.21 195.16 172.99 164.34C192.36 158.87 237.99 162.34 243.9 146.24C248.74 133.1 246.21 125.85 246.21 125.85H213.08Z" fill="#407BFF"/>
<path opacity="0.2" d="M213.08 125.85C213.08 125.85 147.34 123.8 147.08 151.27C146.76 190.75 184.23 242.6 184.23 242.6L198.89 232.85C198.89 232.85 173.21 195.16 172.99 164.34C192.36 158.87 237.99 162.34 243.9 146.24C248.74 133.1 246.21 125.85 246.21 125.85H213.08Z" fill="black"/>
<path d="M202.87 235.36L185.43 246.04L179.96 240.49L199.12 228.43L202.87 235.36Z" fill="#263238"/>
<path d="M192.62 255.56C193.318 255.055 193.956 254.471 194.52 253.82C194.55 253.788 194.569 253.748 194.576 253.705C194.583 253.662 194.577 253.618 194.559 253.578C194.541 253.538 194.511 253.505 194.474 253.482C194.437 253.459 194.394 253.448 194.35 253.45C193.98 253.45 190.7 253.45 190 254.52C189.92 254.64 189.871 254.778 189.859 254.921C189.847 255.064 189.871 255.209 189.93 255.34C189.996 255.547 190.116 255.733 190.278 255.879C190.439 256.025 190.637 256.125 190.85 256.17C191.495 256.192 192.125 255.974 192.62 255.56V255.56ZM193.83 253.91C192.62 255.17 191.55 255.84 190.93 255.73C190.791 255.699 190.663 255.631 190.561 255.532C190.458 255.433 190.385 255.308 190.35 255.17C190.313 255.11 190.293 255.041 190.293 254.97C190.293 254.899 190.313 254.83 190.35 254.77C190.75 254.21 192.52 253.96 193.83 253.91V253.91Z" fill="#407BFF"/>
<path d="M194.48 253.86C194.508 253.838 194.532 253.811 194.55 253.78C194.569 253.747 194.579 253.709 194.579 253.67C194.579 253.631 194.569 253.593 194.55 253.56C194.49 253.46 193.09 251.08 191.77 250.86C191.592 250.825 191.409 250.834 191.235 250.884C191.061 250.935 190.902 251.026 190.77 251.15C190.619 251.262 190.51 251.421 190.46 251.602C190.409 251.783 190.42 251.976 190.49 252.15C190.91 253.15 193.22 253.96 194.33 253.89L194.48 253.86ZM191.19 251.38C191.262 251.326 191.345 251.288 191.433 251.267C191.52 251.247 191.611 251.244 191.7 251.26C192.49 251.39 193.45 252.64 193.95 253.4C192.86 253.3 191.22 252.6 190.95 251.95C190.9 251.83 190.87 251.66 191.12 251.44C191.14 251.46 191.16 251.43 191.19 251.38Z" fill="#407BFF"/>
<path d="M190.32 261.58L180.81 261.13L179.26 238.69L188.76 239.14L190.32 261.58Z" fill="#FFB573"/>
<path d="M180.6 259.5L191.35 259.16C191.531 259.146 191.711 259.205 191.85 259.323C191.988 259.441 192.075 259.609 192.09 259.79L192.88 268.28C192.896 268.729 192.734 269.167 192.428 269.497C192.123 269.826 191.699 270.022 191.25 270.04C187.51 270.04 185.71 269.93 180.98 270.04C178.07 270.13 172.35 270.56 168.36 270.04C164.37 269.52 164.98 265.61 166.71 265.46C170.82 265.13 176.33 262.29 178.97 260.08C179.435 259.712 180.008 259.509 180.6 259.5V259.5Z" fill="#263238"/>
<path d="M177.26 261.27C178.119 261.224 178.971 261.083 179.8 260.85C179.842 260.839 179.879 260.816 179.908 260.784C179.937 260.752 179.955 260.712 179.962 260.67C179.968 260.627 179.962 260.584 179.944 260.545C179.926 260.506 179.897 260.473 179.86 260.45C179.55 260.25 176.78 258.45 175.63 258.97C175.499 259.027 175.384 259.117 175.296 259.231C175.209 259.344 175.152 259.478 175.13 259.62C175.071 259.83 175.068 260.051 175.123 260.262C175.177 260.473 175.287 260.665 175.44 260.82C175.968 261.195 176.618 261.356 177.26 261.27V261.27ZM179.17 260.55C177.47 260.94 176.17 260.93 175.75 260.5C175.652 260.396 175.584 260.269 175.55 260.13C175.517 259.992 175.52 259.847 175.56 259.71C175.568 259.64 175.595 259.574 175.637 259.518C175.679 259.462 175.735 259.418 175.8 259.39C176.42 259.12 178.04 259.87 179.17 260.55V260.55Z" fill="#407BFF"/>
<path d="M179.75 260.86C179.783 260.869 179.817 260.869 179.85 260.86C179.883 260.842 179.91 260.816 179.929 260.785C179.949 260.753 179.959 260.717 179.96 260.68C179.96 260.56 180.1 257.8 179.1 256.9C178.969 256.775 178.81 256.683 178.635 256.635C178.461 256.586 178.277 256.581 178.1 256.62C177.909 256.631 177.727 256.705 177.583 256.833C177.44 256.96 177.344 257.131 177.31 257.32C177.12 258.32 178.61 260.32 179.58 260.86C179.635 260.878 179.695 260.878 179.75 260.86V260.86ZM178.32 257.02C178.408 257.015 178.496 257.028 178.579 257.059C178.662 257.09 178.737 257.138 178.8 257.2C179.4 257.74 179.52 259.31 179.53 260.2C178.67 259.52 177.67 258.04 177.8 257.35C177.8 257.22 177.89 257.06 178.21 257.01L178.32 257.02Z" fill="#407BFF"/>
<path opacity="0.2" d="M188.76 239.15L179.26 238.7L180.15 251.53L189.63 251.51L188.76 239.15Z" fill="black"/>
<path d="M236.46 125.85C236.46 125.85 167.68 132.35 170.18 153.06C173.8 182.92 175.58 247.28 175.58 247.28L193.11 247.97C193.11 247.97 200.54 189.97 196.7 159.34C214.5 159.34 258.08 160.62 262.05 149.9C265.56 140.42 264.31 125.9 264.31 125.9L236.46 125.85Z" fill="#407BFF"/>
<path d="M195.05 249.06L174.01 248.01L173.25 238.85L196.32 240.45L195.05 249.06Z" fill="#263238"/>
<path d="M221.2 65.19C221.07 66.87 220.94 68.33 220.75 69.87C220.56 71.41 220.36 72.87 220.12 74.43C219.65 77.43 219.05 80.43 218.35 83.5C216.987 89.8433 214.77 95.9725 211.76 101.72C210.862 103.335 209.828 104.87 208.67 106.31C207.376 107.935 205.845 109.358 204.13 110.53C200.83 112.722 197.013 114.011 193.06 114.27C189.598 114.497 186.123 114.159 182.77 113.27C181.188 112.865 179.631 112.364 178.11 111.77C177.35 111.48 176.61 111.16 175.88 110.77C175.15 110.38 174.47 110.06 173.63 109.61L176.26 102.92L178.17 103.16L180.17 103.36C181.51 103.47 182.83 103.54 184.17 103.54C186.599 103.581 189.024 103.302 191.38 102.71C193.268 102.257 195.016 101.347 196.47 100.06C197.093 99.4767 197.65 98.8261 198.13 98.12C198.721 97.2105 199.249 96.2616 199.71 95.28C200.768 92.9853 201.634 90.6073 202.3 88.17C203.06 85.64 203.67 82.99 204.22 80.29C204.77 77.59 205.22 74.86 205.67 72.11L206.26 67.97C206.44 66.61 206.64 65.15 206.77 63.97L221.2 65.19Z" fill="#FFB573"/>
<path d="M221.26 57.04C214.26 50.25 205.56 54.26 202.1 67.04C200.142 73.8622 198.803 80.8472 198.1 87.91L220.37 92.51C224.42 80.32 228.46 64 221.26 57.04Z" fill="#263238"/>
<path opacity="0.3" d="M214.09 70.94C215.68 69.51 220.2 75.94 222.96 83.87C222.18 86.87 221.29 89.76 220.38 92.47L206.98 89.7C208.05 81.78 210.52 74.16 214.09 70.94Z" fill="black"/>
<path d="M174.75 99.92L169.75 98.01L169.53 108.62C169.53 108.62 177.93 112.25 179.64 108.08L179.04 105.43C178.751 104.262 178.219 103.169 177.48 102.219C176.741 101.27 175.811 100.487 174.75 99.92Z" fill="#FFB573"/>
<path d="M163.85 98.29L160.9 107.2L169.57 108.62L169.79 98.01L163.85 98.29Z" fill="#FFB573"/>
<path d="M171.41 105.38C171.304 105.382 171.2 105.353 171.11 105.299C171.02 105.244 170.947 105.164 170.9 105.07L161.97 87.88C161.899 87.7446 161.885 87.5867 161.93 87.4406C161.975 87.2946 162.075 87.1722 162.21 87.1C162.347 87.0326 162.505 87.021 162.65 87.0676C162.796 87.1142 162.918 87.2154 162.99 87.35L171.89 104.51C171.961 104.645 171.975 104.803 171.93 104.949C171.885 105.095 171.785 105.218 171.65 105.29C171.577 105.335 171.495 105.366 171.41 105.38V105.38Z" fill="#263238"/>
<path d="M220.43 50.23L231.11 47.23L244.83 46.59C246.914 46.4901 248.973 47.0781 250.689 48.2635C252.406 49.4489 253.685 51.166 254.33 53.15C256.94 61.15 259.33 72.67 261.1 82.64C263.1 93.83 264.1 110.64 264.31 125.9H213.08C211.91 94.05 207.86 75.22 206.08 64.8C205.725 62.7579 206.049 60.6556 207.003 58.8152C207.956 56.9749 209.487 55.4977 211.36 54.61L220.43 50.23Z" fill="#263238"/>
<path opacity="0.3" d="M261.1 82.6C259.72 74.75 257.94 65.91 255.96 58.6C246.83 57.06 242.41 77.08 245.12 87.01C247.83 96.94 262.28 90.92 262.28 90.92C261.94 87.93 261.54 85.12 261.1 82.6Z" fill="black"/>
<path d="M229.29 26.38C231.49 31.78 230.17 41.68 225.83 38.88C221.49 36.08 227.95 23.1 229.29 26.38Z" fill="#263238"/>
<path d="M226.89 29.84L222.74 36.18L217.1 44.81C217.829 45.5484 218.418 46.4122 218.84 47.36C219.84 49.44 220.73 50.99 216.36 53.97C215.891 54.2711 215.517 54.7007 215.285 55.2077C215.053 55.7148 214.971 56.2779 215.05 56.83C215.31 58.18 216.65 59.49 221.36 58.66C225.899 57.791 230.041 55.4922 233.18 52.1C234.75 50.53 234.39 49.35 232.88 47.72C228.56 43.12 227.28 35.77 226.89 29.84Z" fill="#FFB573"/>
<path opacity="0.2" d="M218.45 42.68L221.91 36.53C221.983 36.69 222.063 36.86 222.15 37.04C222.457 37.7995 222.705 38.5819 222.89 39.38C223.52 42.11 221.4 46.01 219.07 47.87L218.8 47.34C218.38 46.4545 217.842 45.6303 217.2 44.89C217.159 44.8493 217.112 44.8155 217.06 44.79L218.45 42.68Z" fill="black"/>
<path d="M197.68 22.38C196.39 25.29 200.96 33.53 206.19 30.2C211.42 26.87 199.96 17.23 197.68 22.38Z" fill="#263238"/>
<path d="M222.89 60.43C222.821 60.431 222.754 60.4074 222.701 60.3635C222.648 60.3195 222.612 60.258 222.6 60.19C222.22 57.72 220.6 56.19 218.77 54.33C216.45 52.06 213.82 49.48 212.96 44.43C212.947 44.3558 212.964 44.2793 213.007 44.2174C213.05 44.1555 213.116 44.1133 213.19 44.1C213.264 44.0868 213.341 44.1035 213.403 44.1467C213.465 44.1898 213.507 44.2557 213.52 44.33C214.36 49.2 216.92 51.71 219.17 53.92C221.02 55.73 222.76 57.44 223.17 60.1C223.177 60.1376 223.176 60.1762 223.168 60.2135C223.16 60.2508 223.144 60.286 223.121 60.3169C223.099 60.3478 223.07 60.3738 223.037 60.3933C223.004 60.4127 222.968 60.4252 222.93 60.43H222.89Z" fill="white"/>
<path d="M225.02 19.45C227.02 28.51 228.58 33.72 225.35 39.45C220.47 48.12 208.27 46.94 203.63 38.6C199.45 31.1 196.96 17.54 204.73 11.69C206.468 10.3975 208.505 9.56472 210.651 9.26884C212.797 8.97296 214.983 9.22355 217.006 9.99739C219.03 10.7712 220.825 12.0433 222.226 13.6957C223.627 15.348 224.588 17.3273 225.02 19.45V19.45Z" fill="#FFB573"/>
<path d="M227.71 25.67C224.59 30.1 216.41 21.97 217.08 16.51C208.96 21.13 200.14 27.3 194.79 22.1C188.61 16.1 190.3 7.49999 197.54 6.72999C196.26 9.22999 203.54 10.34 207.41 6.47999C213.96 -1.19209e-05 224.31 1.34998 224.12 6.59998C229.11 4.61998 234.56 15.94 227.71 25.67Z" fill="#263238"/>
<path d="M223.16 8.07001C225.09 6.63001 223.81 1.5 219.33 0C223.59 0.55 228 3.72001 223.16 8.07001Z" fill="#263238"/>
<path d="M230.6 25.27C230.686 27.3416 230.01 29.3729 228.7 30.98C226.98 33.03 224.33 31.4 223.7 28.84C223.15 26.55 223.86 23 226.12 21.9C228.38 20.8 230.48 22.69 230.6 25.27Z" fill="#FFB573"/>
<path d="M212.02 26.8C212.26 27.53 212.08 28.27 211.6 28.44C211.12 28.61 210.6 28.16 210.31 27.44C210.02 26.72 210.25 25.97 210.73 25.79C211.21 25.61 211.78 26.06 212.02 26.8Z" fill="#263238"/>
<path d="M203.82 29.8C204.07 30.54 203.88 31.28 203.4 31.45C202.92 31.62 202.35 31.17 202.11 30.45C201.87 29.73 202.06 28.98 202.53 28.81C203 28.64 203.58 29.07 203.82 29.8Z" fill="#263238"/>
<path d="M206.63 29.38C206.663 31.5673 206.407 33.7495 205.87 35.87C207.34 36.41 208.96 35.14 208.96 35.14L206.63 29.38Z" fill="#ED893E"/>
<path d="M211.02 39.21C211.872 38.9301 212.657 38.4799 213.33 37.8869C214.002 37.2938 214.546 36.5701 214.93 35.76C214.953 35.7043 214.954 35.6415 214.932 35.5854C214.909 35.5292 214.865 35.4842 214.81 35.46C214.753 35.4397 214.69 35.4419 214.634 35.466C214.579 35.4901 214.534 35.5344 214.51 35.59C214.081 36.4634 213.456 37.2262 212.684 37.8192C211.912 38.4123 211.014 38.8198 210.06 39.01C210.029 39.014 209.999 39.0245 209.972 39.0406C209.944 39.0568 209.921 39.0784 209.903 39.104C209.884 39.1296 209.871 39.1588 209.865 39.1896C209.858 39.2204 209.858 39.2523 209.864 39.2832C209.87 39.3141 209.883 39.3435 209.901 39.3693C209.919 39.3952 209.942 39.4172 209.969 39.4337C209.995 39.4503 210.025 39.4612 210.057 39.4657C210.088 39.4702 210.12 39.4683 210.15 39.46C210.445 39.3959 210.736 39.3124 211.02 39.21V39.21Z" fill="#263238"/>
<path d="M212.77 23.62C212.84 23.587 212.899 23.535 212.94 23.47C213.004 23.3676 213.025 23.2442 212.999 23.1263C212.973 23.0085 212.901 22.9056 212.8 22.84C212.208 22.4407 211.528 22.1935 210.818 22.1203C210.108 22.047 209.391 22.15 208.73 22.42C208.675 22.4447 208.625 22.4803 208.584 22.5247C208.543 22.569 208.511 22.6212 208.49 22.6782C208.47 22.7352 208.461 22.7957 208.464 22.8561C208.468 22.9166 208.483 22.9757 208.51 23.03C208.564 23.138 208.658 23.2206 208.772 23.2599C208.886 23.2991 209.011 23.292 209.12 23.24C209.641 23.0387 210.204 22.9662 210.759 23.0289C211.315 23.0916 211.847 23.2875 212.31 23.6C212.377 23.6466 212.456 23.6732 212.537 23.6768C212.619 23.6803 212.699 23.6606 212.77 23.62V23.62Z" fill="#263238"/>
<path d="M202.2 25.06C202.219 24.9845 202.219 24.9055 202.2 24.83C202.152 24.7192 202.062 24.6318 201.949 24.5869C201.837 24.542 201.711 24.5431 201.6 24.59C200.934 24.8481 200.343 25.2673 199.878 25.8101C199.414 26.3528 199.092 27.0022 198.94 27.7C198.92 27.818 198.948 27.9391 199.017 28.0366C199.087 28.1342 199.192 28.2001 199.31 28.22C199.428 28.2399 199.549 28.2121 199.647 28.1427C199.744 28.0733 199.81 27.968 199.83 27.85C199.96 27.3048 200.221 26.7994 200.591 26.3778C200.96 25.9561 201.427 25.6308 201.95 25.43C202.02 25.3947 202.079 25.3421 202.123 25.2774C202.167 25.2127 202.193 25.1378 202.2 25.06Z" fill="#263238"/>
<path d="M252.56 53.38C253.56 55 254.36 56.46 255.19 58.02C256.02 59.58 256.82 61.1 257.6 62.66C259.18 65.77 260.6 68.97 261.98 72.23C263.36 75.49 264.57 78.85 265.61 82.35C266.748 86.0236 267.512 89.8028 267.89 93.63C268.092 95.8642 268.015 98.1149 267.66 100.33C267.432 101.791 266.987 103.21 266.34 104.54C265.591 106.043 264.551 107.382 263.28 108.48C262.136 109.474 260.831 110.266 259.42 110.82C258.236 111.285 257.006 111.62 255.75 111.82C253.629 112.152 251.475 112.209 249.34 111.99C247.433 111.828 245.541 111.524 243.68 111.08C241.903 110.675 240.147 110.181 238.42 109.6C235.026 108.476 231.728 107.078 228.56 105.42L231.09 98.69C237.31 99.87 243.99 100.96 249.6 100.62C250.827 100.556 252.042 100.348 253.22 100C254.22 99.7 254.73 99.25 254.69 99.11C254.65 98.97 254.63 99.11 254.61 99.01C254.59 98.91 254.61 98.9 254.61 98.39C254.672 97.266 254.605 96.1387 254.41 95.03C253.932 92.1761 253.185 89.3737 252.18 86.66C251.18 83.76 249.97 80.83 248.66 77.93C247.35 75.03 245.94 72.12 244.51 69.22C243.79 67.7667 243.047 66.33 242.28 64.91L240.02 60.72L252.56 53.38Z" fill="#FFB573"/>
<path d="M247.89 46.69C238.23 45.22 233.48 53.51 238.03 65.89C240.379 72.5868 243.331 79.0566 246.85 85.22L267.68 76.09C263.89 63.84 257.77 48.2 247.89 46.69Z" fill="#263238"/>
<path d="M225.73 97.77L221.27 99.11L227.6 108.11C227.6 108.11 236.98 104.75 235.06 100.67L232.7 99.33C230.68 98.16 228.12 96.95 225.73 97.77Z" fill="#FFB573"/>
<path d="M217.32 105.31L221.79 109.78L227.59 108.1L221.27 99.11L217.32 105.31Z" fill="#FFB573"/>
<path d="M227.07 28.14C227.865 28.14 228.51 27.361 228.51 26.4C228.51 25.439 227.865 24.66 227.07 24.66C226.275 24.66 225.63 25.439 225.63 26.4C225.63 27.361 226.275 28.14 227.07 28.14Z" fill="white"/>
<path d="M228.26 31L227.43 30.97L226.92 26.96L228.5 26.6L228.26 31Z" fill="white"/>
<path d="M234 106.58C231 106.58 228.34 106.13 226.73 104.67C226.129 104.092 225.662 103.39 225.36 102.613C225.058 101.836 224.928 101.002 224.98 100.17C225.071 96.0463 225.714 91.9534 226.89 88C228.28 82.55 229.38 78.25 226.04 72.94C220.72 64.51 222.31 52.72 226.04 45.33C228.89 39.68 227.89 33.38 227.53 31.06C227.48 30.76 227.44 30.52 227.42 30.36C227.416 30.3224 227.419 30.2844 227.43 30.2482C227.441 30.212 227.459 30.1784 227.484 30.1495C227.508 30.1205 227.538 30.0967 227.572 30.0797C227.605 30.0626 227.642 30.0525 227.68 30.05C227.755 30.0415 227.831 30.0629 227.891 30.1096C227.951 30.1564 227.99 30.2247 228 30.3C228 30.45 228.05 30.68 228.09 30.97C228.47 33.38 229.46 39.77 226.52 45.59C222.87 52.84 221.31 64.39 226.52 72.59C229.99 78.1 228.81 82.73 227.44 88.09C226.288 91.9895 225.659 96.0248 225.57 100.09C225.516 100.842 225.627 101.597 225.894 102.301C226.162 103.006 226.58 103.644 227.12 104.17C229.82 106.6 235.78 105.98 241.54 105.38C244.12 105.12 246.79 104.84 249.14 104.84C249.217 104.84 249.291 104.871 249.345 104.925C249.399 104.979 249.43 105.053 249.43 105.13C249.43 105.207 249.399 105.281 249.345 105.335C249.291 105.389 249.217 105.42 249.14 105.42C246.82 105.42 244.14 105.69 241.6 105.96C239.079 106.294 236.542 106.501 234 106.58V106.58Z" fill="white"/>
<path d="M261.11 104.45H249.73C249.399 104.45 249.13 104.719 249.13 105.05V105.85C249.13 106.181 249.399 106.45 249.73 106.45H261.11C261.441 106.45 261.71 106.181 261.71 105.85V105.05C261.71 104.719 261.441 104.45 261.11 104.45Z" fill="white"/>
<path d="M332.53 113.1H55.25C54.3676 113.097 53.5222 112.746 52.8982 112.122C52.2743 111.498 51.9226 110.652 51.92 109.77C51.9226 108.888 52.2743 108.042 52.8982 107.418C53.5222 106.794 54.3676 106.443 55.25 106.44H332.53C333.412 106.443 334.258 106.794 334.882 107.418C335.506 108.042 335.857 108.888 335.86 109.77V109.77C335.857 110.652 335.506 111.498 334.882 112.122C334.258 112.746 333.412 113.097 332.53 113.1V113.1Z" fill="#407BFF"/>
<path opacity="0.3" d="M332.53 113.1H267.62C266.738 113.097 265.892 112.746 265.268 112.122C264.644 111.498 264.293 110.652 264.29 109.77V109.77C264.293 108.888 264.644 108.042 265.268 107.418C265.892 106.794 266.738 106.443 267.62 106.44H332.53C333.412 106.443 334.258 106.794 334.882 107.418C335.506 108.042 335.857 108.888 335.86 109.77V109.77C335.857 110.652 335.506 111.498 334.882 112.122C334.258 112.746 333.412 113.097 332.53 113.1V113.1Z" fill="#263238"/>
<path d="M329.47 270.01H335.86L328.51 113.11H319.67L329.47 270.01Z" fill="#263238"/>
<path opacity="0.1" d="M329.47 270.01H335.86L328.51 113.11H319.67L329.47 270.01Z" fill="white"/>
<path d="M270.67 270.01H264.29L271.64 113.11H280.48L270.67 270.01Z" fill="#263238"/>
<path opacity="0.2" d="M270.67 270.01H264.29L271.64 113.11H280.48L270.67 270.01Z" fill="white"/>
<path d="M117.1 270.01H123.49L116.14 113.11H107.3L117.1 270.01Z" fill="#263238"/>
<path opacity="0.1" d="M117.1 270.01H123.49L116.14 113.11H107.3L117.1 270.01Z" fill="white"/>
<path d="M58.31 270.01H51.92L59.27 113.11H68.11L58.31 270.01Z" fill="#263238"/>
<path opacity="0.2" d="M58.31 270.01H51.92L59.27 113.11H68.11L58.31 270.01Z" fill="white"/>
<path d="M274.38 121.45H61.13V134.6H274.38V121.45Z" fill="#263238"/>
<path opacity="0.2" d="M274.38 121.45H61.13V134.6H274.38V121.45Z" fill="white"/>
<path d="M96.22 97.6C95.8504 97.6 95.4958 97.7461 95.2336 98.0065C94.9713 98.2669 94.8226 98.6204 94.82 98.99V104.99C94.82 105.361 94.9675 105.717 95.23 105.98C95.4926 106.242 95.8487 106.39 96.22 106.39H141.57C141.69 106.39 141.806 106.343 141.892 106.259C141.978 106.175 142.027 106.06 142.03 105.94V98C142.027 97.8797 141.978 97.7653 141.892 97.6812C141.806 97.5971 141.69 97.55 141.57 97.55L96.22 97.6Z" fill="#407BFF"/>
<path opacity="0.9" d="M123.06 98.44H142.06V105.6H123.06C122.845 105.6 122.639 105.515 122.487 105.363C122.335 105.211 122.25 105.005 122.25 104.79V99.25C122.25 99.0352 122.335 98.8292 122.487 98.6772C122.639 98.5253 122.845 98.44 123.06 98.44V98.44Z" fill="white"/>
<path d="M119.94 97.6H74.13C73.3568 97.6 72.73 98.2268 72.73 99V105.05C72.73 105.823 73.3568 106.45 74.13 106.45H119.94C120.713 106.45 121.34 105.823 121.34 105.05V99C121.34 98.2268 120.713 97.6 119.94 97.6Z" fill="#407BFF"/>
<path opacity="0.2" d="M119.94 97.6H74.13C73.3568 97.6 72.73 98.2268 72.73 99V105.05C72.73 105.823 73.3568 106.45 74.13 106.45H119.94C120.713 106.45 121.34 105.823 121.34 105.05V99C121.34 98.2268 120.713 97.6 119.94 97.6Z" fill="black"/>
<path opacity="0.5" d="M97.41 97.6H90.46C90.1452 97.6 89.89 97.8552 89.89 98.17V105.88C89.89 106.195 90.1452 106.45 90.46 106.45H97.41C97.7248 106.45 97.98 106.195 97.98 105.88V98.17C97.98 97.8552 97.7248 97.6 97.41 97.6Z" fill="#407BFF"/>
<path opacity="0.5" d="M107.44 97.6H100.5C100.185 97.6 99.93 97.8552 99.93 98.17V105.88C99.93 106.195 100.185 106.45 100.5 106.45H107.44C107.755 106.45 108.01 106.195 108.01 105.88V98.17C108.01 97.8552 107.755 97.6 107.44 97.6Z" fill="#407BFF"/>
<path d="M88.02 86.7C87.8362 86.7 87.6541 86.7362 87.4842 86.8066C87.3144 86.8769 87.16 86.98 87.03 87.11C86.9 87.24 86.7969 87.3944 86.7266 87.5642C86.6562 87.7341 86.62 87.9161 86.62 88.1V96.2C86.62 96.3838 86.6562 96.5659 86.7266 96.7357C86.7969 96.9056 86.9 97.0599 87.03 97.1899C87.16 97.3199 87.3144 97.4231 87.4842 97.4934C87.6541 97.5638 87.8362 97.6 88.02 97.6H137.15C137.27 97.5974 137.385 97.5478 137.469 97.4618C137.553 97.3758 137.6 97.2603 137.6 97.14V87.14C137.6 87.0197 137.553 86.9042 137.469 86.8182C137.385 86.7322 137.27 86.6826 137.15 86.68L88.02 86.7Z" fill="#407BFF"/>
<path opacity="0.9" d="M114.86 87.55H137.6V96.76H114.86C114.645 96.76 114.439 96.6746 114.287 96.5227C114.135 96.3708 114.05 96.1648 114.05 95.95V88.36C114.05 88.2536 114.071 88.1483 114.112 88.05C114.152 87.9517 114.212 87.8624 114.287 87.7872C114.362 87.712 114.452 87.6523 114.55 87.6116C114.648 87.5709 114.754 87.55 114.86 87.55V87.55Z" fill="white"/>
<path d="M111.73 86.71H73.21C72.4368 86.71 71.81 87.3368 71.81 88.11V96.2C71.81 96.9732 72.4368 97.6 73.21 97.6H111.73C112.503 97.6 113.13 96.9732 113.13 96.2V88.11C113.13 87.3368 112.503 86.71 111.73 86.71Z" fill="#407BFF"/>
<path opacity="0.2" d="M111.73 86.71H73.21C72.4368 86.71 71.81 87.3368 71.81 88.11V96.2C71.81 96.9732 72.4368 97.6 73.21 97.6H111.73C112.503 97.6 113.13 96.9732 113.13 96.2V88.11C113.13 87.3368 112.503 86.71 111.73 86.71Z" fill="white"/>
<path opacity="0.6" d="M108.12 88.87H79.91C79.4406 88.87 79.06 89.2506 79.06 89.72V94.59C79.06 95.0594 79.4406 95.44 79.91 95.44H108.12C108.589 95.44 108.97 95.0594 108.97 94.59V89.72C108.97 89.2506 108.589 88.87 108.12 88.87Z" fill="#407BFF"/>
<path d="M102.43 81.49C101.66 81.49 101.03 81.86 101.03 82.31V85.88C101.03 86.33 101.66 86.7 102.43 86.7H147.79C148.04 86.7 148.24 86.58 148.24 86.44V81.76C148.24 81.61 148.04 81.49 147.79 81.49H102.43Z" fill="#407BFF"/>
<path opacity="0.9" d="M129.09 82H148.24V86.22H129.09C128.926 86.22 128.768 86.1547 128.652 86.0384C128.535 85.9221 128.47 85.7644 128.47 85.6V82.6C128.475 82.4391 128.543 82.2865 128.658 82.1745C128.774 82.0625 128.929 81.9999 129.09 82Z" fill="white"/>
<path d="M126.48 81.49H80.01C79.4191 81.49 78.94 81.969 78.94 82.56V85.64C78.94 86.2309 79.4191 86.71 80.01 86.71H126.48C127.071 86.71 127.55 86.2309 127.55 85.64V82.56C127.55 81.969 127.071 81.49 126.48 81.49Z" fill="#407BFF"/>
<path opacity="0.2" d="M126.48 81.49H80.01C79.4191 81.49 78.94 81.969 78.94 82.56V85.64C78.94 86.2309 79.4191 86.71 80.01 86.71H126.48C127.071 86.71 127.55 86.2309 127.55 85.64V82.56C127.55 81.969 127.071 81.49 126.48 81.49Z" fill="black"/>
<path opacity="0.5" d="M85.85 81.49H84.4C84.284 81.49 84.19 81.584 84.19 81.7V86.5C84.19 86.616 84.284 86.71 84.4 86.71H85.85C85.966 86.71 86.06 86.616 86.06 86.5V81.7C86.06 81.584 85.966 81.49 85.85 81.49Z" fill="#407BFF"/>
<path opacity="0.5" d="M123.57 81.49H122.15C122.034 81.49 121.94 81.584 121.94 81.7V86.5C121.94 86.616 122.034 86.71 122.15 86.71H123.57C123.686 86.71 123.78 86.616 123.78 86.5V81.7C123.78 81.584 123.686 81.49 123.57 81.49Z" fill="#407BFF"/>
<path d="M94.23 73.95C93.46 73.95 92.83 74.32 92.83 74.77V80.66C92.83 81.12 93.46 81.49 94.23 81.49H143.36C143.61 81.49 143.82 81.37 143.82 81.22V74.22C143.82 74.07 143.61 73.95 143.36 73.95H94.23Z" fill="#407BFF"/>
<path opacity="0.9" d="M120.88 74.45H143.81V81H120.88C120.716 81 120.558 80.9347 120.442 80.8184C120.325 80.7021 120.26 80.5444 120.26 80.38V75.07C120.26 74.9056 120.325 74.7478 120.442 74.6316C120.558 74.5153 120.716 74.45 120.88 74.45V74.45Z" fill="white"/>
<path d="M118.27 73.95H79.09C78.499 73.95 78.02 74.429 78.02 75.02V80.42C78.02 81.0109 78.499 81.49 79.09 81.49H118.27C118.861 81.49 119.34 81.0109 119.34 80.42V75.02C119.34 74.429 118.861 73.95 118.27 73.95Z" fill="#407BFF"/>
<path opacity="0.1" d="M118.27 73.95H79.09C78.499 73.95 78.02 74.429 78.02 75.02V80.42C78.02 81.0109 78.499 81.49 79.09 81.49H118.27C118.861 81.49 119.34 81.0109 119.34 80.42V75.02C119.34 74.429 118.861 73.95 118.27 73.95Z" fill="black"/>
<path d="M203.81 104.78H162.54C162.319 104.78 162.107 104.867 161.95 105.022C161.792 105.178 161.703 105.389 161.7 105.61V105.61C161.703 105.831 161.792 106.042 161.95 106.197C162.107 106.353 162.319 106.44 162.54 106.44H203.81C204.03 106.44 204.241 106.353 204.397 106.197C204.553 106.041 204.64 105.83 204.64 105.61V105.61C204.64 105.39 204.553 105.179 204.397 105.023C204.241 104.867 204.03 104.78 203.81 104.78V104.78Z" fill="white"/>
<path d="M284.55 102.8H311.67L314.12 106.35H282.1L284.55 102.8Z" fill="#263238"/>
<path d="M326.43 42.21C326.43 42.9319 326.216 43.6376 325.815 44.2378C325.414 44.8381 324.844 45.3059 324.177 45.5822C323.51 45.8584 322.776 45.9307 322.068 45.7899C321.36 45.649 320.71 45.3014 320.199 44.7909C319.689 44.2805 319.341 43.6301 319.2 42.9221C319.059 42.214 319.132 41.4802 319.408 40.8132C319.684 40.1463 320.152 39.5762 320.752 39.1751C321.352 38.7741 322.058 38.56 322.78 38.56C323.26 38.5587 323.735 38.6522 324.178 38.8351C324.622 39.0181 325.025 39.2869 325.364 39.6261C325.703 39.9653 325.972 40.3682 326.155 40.8116C326.338 41.2551 326.431 41.7303 326.43 42.21V42.21Z" fill="black"/>
<path d="M299.01 105.2C298.82 105.199 298.633 105.152 298.465 105.062C298.298 104.973 298.155 104.843 298.049 104.685C297.943 104.527 297.878 104.345 297.859 104.156C297.84 103.967 297.868 103.776 297.94 103.6L324.07 41.76C324.205 41.5017 324.432 41.3036 324.706 41.2051C324.98 41.1066 325.281 41.1149 325.55 41.2283C325.818 41.3416 326.034 41.5519 326.155 41.8171C326.275 42.0824 326.291 42.3833 326.2 42.66L300.07 104.49C299.982 104.699 299.835 104.878 299.646 105.004C299.458 105.13 299.237 105.198 299.01 105.2Z" fill="#263238"/>
<path d="M325.13 43.38C324.882 43.3772 324.64 43.2968 324.44 43.15L276.99 7.55999C276.746 7.37699 276.585 7.10457 276.542 6.80264C276.498 6.50071 276.577 6.19401 276.76 5.95001C276.943 5.70601 277.215 5.54469 277.517 5.50155C277.819 5.45842 278.126 5.537 278.37 5.72L325.83 41.29C326.022 41.4373 326.163 41.6408 326.233 41.8721C326.304 42.1033 326.3 42.3509 326.223 42.58C326.146 42.8092 325.999 43.0085 325.803 43.1501C325.607 43.2918 325.372 43.3686 325.13 43.37V43.38Z" fill="#263238"/>
<path d="M328.78 42.21C328.78 42.9319 328.566 43.6376 328.165 44.2378C327.764 44.8381 327.194 45.3059 326.527 45.5822C325.86 45.8584 325.126 45.9307 324.418 45.7899C323.71 45.649 323.06 45.3014 322.549 44.7909C322.039 44.2805 321.691 43.6301 321.55 42.9221C321.409 42.214 321.482 41.4802 321.758 40.8132C322.034 40.1463 322.502 39.5762 323.102 39.1751C323.702 38.7741 324.408 38.56 325.13 38.56C325.61 38.5587 326.085 38.6522 326.528 38.8351C326.972 39.0181 327.375 39.2869 327.714 39.6261C328.053 39.9653 328.322 40.3682 328.505 40.8116C328.688 41.2551 328.781 41.7303 328.78 42.21V42.21Z" fill="#263238"/>
<path d="M277.68 10.29C279.69 10.29 281.32 8.6603 281.32 6.64998C281.32 4.63966 279.69 3.00998 277.68 3.00998C275.67 3.00998 274.04 4.63966 274.04 6.64998C274.04 8.6603 275.67 10.29 277.68 10.29Z" fill="#263238"/>
<path d="M272.58 23.28C271.439 24.4212 269.985 25.1983 268.402 25.5132C266.819 25.828 265.178 25.6664 263.687 25.0488C262.196 24.4312 260.922 23.3853 260.025 22.0434C259.129 20.7015 258.65 19.1239 258.65 17.51C258.65 15.8961 259.129 14.3184 260.025 12.9765C260.922 11.6346 262.196 10.5887 263.687 9.97112C265.178 9.35351 266.819 9.19192 268.402 9.50677C269.985 9.82162 271.439 10.5988 272.58 11.74C274.108 13.2716 274.966 15.3466 274.966 17.51C274.966 19.6733 274.108 21.7484 272.58 23.28V23.28Z" fill="#407BFF"/>
<path opacity="0.7" d="M272.58 23.28C271.439 24.4212 269.985 25.1983 268.402 25.5132C266.819 25.828 265.178 25.6664 263.687 25.0488C262.196 24.4312 260.922 23.3853 260.025 22.0434C259.129 20.7015 258.65 19.1239 258.65 17.51C258.65 15.8961 259.129 14.3184 260.025 12.9765C260.922 11.6346 262.196 10.5887 263.687 9.97112C265.178 9.35351 266.819 9.19192 268.402 9.50677C269.985 9.82162 271.439 10.5988 272.58 11.74C274.108 13.2716 274.966 15.3466 274.966 17.51C274.966 19.6733 274.108 21.7484 272.58 23.28V23.28Z" fill="white"/>
<path d="M277.68 6.63998C276.058 5.01569 274.131 3.72714 272.01 2.84798C269.889 1.96882 267.616 1.5163 265.32 1.5163C263.024 1.5163 260.751 1.96882 258.63 2.84798C256.509 3.72714 254.582 5.01569 252.96 6.63998L277.68 31.38C279.306 29.7565 280.596 27.8283 281.476 25.7057C282.357 23.5831 282.81 21.3078 282.81 19.01C282.81 16.7122 282.357 14.4369 281.476 12.3143C280.596 10.1917 279.306 8.26351 277.68 6.63998V6.63998Z" fill="#263238"/>
<g opacity="0.2">
<path opacity="0.2" d="M252.95 6.64999L149.13 106.45H255.64L277.68 31.37L252.95 6.64999Z" fill="#407BFF"/>
<path opacity="0.7" d="M252.95 6.64999L149.13 106.45H255.64L277.68 31.37L252.95 6.64999Z" fill="white"/>
</g>
</g>
<defs>
<clipPath id="clip0">
<rect width="387.78" height="282.95" fill="white"/>
</clipPath>
</defs>
</svg>
